<?xml version="1.0" encoding="utf-8"?>
<!DOCTYPE svg
  PUBLIC '-//W3C//DTD SVG 1.0//EN'
  'http://www.w3.org/TR/2001/REC-SVG-20010904/DTD/svg10.dtd'>
<svg width="841.8897637795277" height="595.2755905511812" preserveAspectRatio="xMinYMin meet" viewBox="0 0 841 595" xmlns="http://www.w3.org/2000/svg" version="1.0" fill-rule="evenodd" xmlns:xlink="http://www.w3.org/1999/xlink">
	<title>...</title>
	<desc>...</desc>
	<clipPath id="clip">
		<rect x="0" y="0" width="841.8897637795277" height="595.2755905511812"/>
	</clipPath>
	<g id="group" transform="scale(1,-1) translate(0,-595)" style="clip-path: url(#clip)">
		<g transform="">
			<polygon points="96.30603 547.8489, 729.8702 547.8489, 729.8702 554.6294, 741.1712 543.3285, 729.8702 532.0276, 729.8702 538.8081, 96.30603 538.8081" style="stroke: rgb(0%,0%,100%); stroke-linecap: round; stroke-width: 1; fill: rgb(0%,0%,100%); fill-rule: evenodd;"/>
			<polygon points="96.30603 547.8489, 718.5693 547.8489, 718.5693 554.6294, 741.1712 543.3285, 718.5693 532.0276, 718.5693 538.8081, 96.30603 538.8081" style="stroke: rgb(100%,64%,0%); stroke-linecap: round; stroke-width: 1; fill: rgb(100%,64%,0%); fill-rule: evenodd;"/>
			<polygon points="738.6497 547.8489, 788.4943 547.8489, 788.4943 554.6294, 799.7953 543.3285, 788.4943 532.0276, 788.4943 538.8081, 738.6497 538.8081" style="stroke: rgb(0%,0%,100%); stroke-linecap: round; stroke-width: 1; fill: rgb(0%,0%,100%); fill-rule: evenodd;"/>
			<polygon points="42.09449 480.8804, 463.2251 480.8804, 463.2251 487.6609, 474.5261 476.36, 463.2251 465.0591, 463.2251 471.8396, 42.09449 471.8396" style="stroke: rgb(0%,0%,100%); stroke-linecap: round; stroke-width: 1; fill: rgb(0%,0%,100%); fill-rule: evenodd;"/>
			<polygon points="738.6497 547.8489, 777.1934 547.8489, 777.1934 554.6294, 799.7953 543.3285, 777.1934 532.0276, 777.1934 538.8081, 738.6497 538.8081" style="stroke: rgb(100%,64%,0%); stroke-linecap: round; stroke-width: 1; fill: rgb(100%,64%,0%); fill-rule: evenodd;"/>
			<polygon points="42.09449 480.8804, 451.9242 480.8804, 451.9242 487.6609, 474.5261 476.36, 451.9242 465.0591, 451.9242 471.8396, 42.09449 471.8396" style="stroke: rgb(100%,64%,0%); stroke-linecap: round; stroke-width: 1; fill: rgb(100%,64%,0%); fill-rule: evenodd;"/>
			<polygon points="369.8852 413.9119, 481.5058 413.9119, 481.5058 420.6924, 492.8067 409.3915, 481.5058 398.0906, 481.5058 404.8711, 369.8852 404.8711" style="stroke: rgb(0%,0%,100%); stroke-linecap: round; stroke-width: 1; fill: rgb(0%,0%,100%); fill-rule: evenodd;"/>
			<polygon points="369.8852 413.9119, 470.2048 413.9119, 470.2048 420.6924, 492.8067 409.3915, 470.2048 398.0906, 470.2048 404.8711, 369.8852 404.8711" style="stroke: rgb(100%,64%,0%); stroke-linecap: round; stroke-width: 1; fill: rgb(100%,64%,0%); fill-rule: evenodd;"/>
			<polygon points="723.5209 413.9119, 788.4943 413.9119, 788.4943 420.6924, 799.7953 409.3915, 788.4943 398.0906, 788.4943 404.8711, 723.5209 404.8711" style="stroke: rgb(0%,0%,100%); stroke-linecap: round; stroke-width: 1; fill: rgb(0%,0%,100%); fill-rule: evenodd;"/>
			<polygon points="42.09449 346.9434, 189.0156 346.9434, 189.0156 353.7239, 200.3165 342.423, 189.0156 331.122, 189.0156 337.9026, 42.09449 337.9026" style="stroke: rgb(0%,0%,100%); stroke-linecap: round; stroke-width: 1; fill: rgb(0%,0%,100%); fill-rule: evenodd;"/>
			<polygon points="723.5209 413.9119, 777.1934 413.9119, 777.1934 420.6924, 799.7953 409.3915, 777.1934 398.0906, 777.1934 404.8711, 723.5209 404.8711" style="stroke: rgb(100%,64%,0%); stroke-linecap: round; stroke-width: 1; fill: rgb(100%,64%,0%); fill-rule: evenodd;"/>
			<polygon points="42.09449 346.9434, 177.7147 346.9434, 177.7147 353.7239, 200.3165 342.423, 177.7147 331.122, 177.7147 337.9026, 42.09449 337.9026" style="stroke: rgb(100%,64%,0%); stroke-linecap: round; stroke-width: 1; fill: rgb(100%,64%,0%); fill-rule: evenodd;"/>
			<polygon points="506.0444 346.9434, 770.8441 346.9434, 770.8441 353.7239, 782.145 342.423, 770.8441 331.122, 770.8441 337.9026, 506.0444 337.9026" style="stroke: rgb(0%,0%,100%); stroke-linecap: round; stroke-width: 1; fill: rgb(0%,0%,100%); fill-rule: evenodd;"/>
			<polygon points="506.0444 346.9434, 759.5431 346.9434, 759.5431 353.7239, 782.145 342.423, 759.5431 331.122, 759.5431 337.9026, 506.0444 337.9026" style="stroke: rgb(100%,64%,0%); stroke-linecap: round; stroke-width: 1; fill: rgb(100%,64%,0%); fill-rule: evenodd;"/>
			<polygon points="722.8905 257.373, 57.17762 257.373, 57.17762 264.1535, 45.87669 252.8526, 57.17762 241.5517, 57.17762 248.3322, 722.8905 248.3322" style="stroke: rgb(0%,0%,100%); stroke-linecap: round; stroke-width: 1; fill: rgb(0%,0%,100%); fill-rule: evenodd;"/>
			<polygon points="722.8905 257.373, 68.47856 257.373, 68.47856 264.1535, 45.87669 252.8526, 68.47856 241.5517, 68.47856 248.3322, 722.8905 248.3322" style="stroke: rgb(100%,64%,0%); stroke-linecap: round; stroke-width: 1; fill: rgb(100%,64%,0%); fill-rule: evenodd;"/>
			<polygon points="796.0131 279.9749, 796.0131 286.7554, 799.7953 275.4545, 796.0131 264.1535, 796.0131 270.9341" style="stroke: rgb(0%,0%,100%); stroke-linecap: round; stroke-width: 1; fill: rgb(0%,0%,100%); fill-rule: evenodd;"/>
			<polygon points="42.09449 213.0063, 289.8743 213.0063, 289.8743 219.7869, 301.1752 208.486, 289.8743 197.185, 289.8743 203.9656, 42.09449 203.9656" style="stroke: rgb(0%,0%,100%); stroke-linecap: round; stroke-width: 1; fill: rgb(0%,0%,100%); fill-rule: evenodd;"/>
			<polygon points="796.0131 279.9749, 796.0131 286.7554, 799.7953 275.4545, 796.0131 264.1535, 796.0131 270.9341" style="stroke: rgb(100%,64%,0%); stroke-linecap: round; stroke-width: 1; fill: rgb(100%,64%,0%); fill-rule: evenodd;"/>
			<polygon points="42.09449 213.0063, 278.5733 213.0063, 278.5733 219.7869, 301.1752 208.486, 278.5733 197.185, 278.5733 203.9656, 42.09449 203.9656" style="stroke: rgb(100%,64%,0%); stroke-linecap: round; stroke-width: 1; fill: rgb(100%,64%,0%); fill-rule: evenodd;"/>
			<polygon points="453.724 213.0063, 788.4943 213.0063, 788.4943 219.7869, 799.7953 208.486, 788.4943 197.185, 788.4943 203.9656, 453.724 203.9656" style="stroke: rgb(0%,0%,100%); stroke-linecap: round; stroke-width: 1; fill: rgb(0%,0%,100%); fill-rule: evenodd;"/>
			<polygon points="42.09449 146.0378, 276.6366 146.0378, 276.6366 152.8184, 287.9375 141.5175, 276.6366 130.2165, 276.6366 136.9971, 42.09449 136.9971" style="stroke: rgb(0%,0%,100%); stroke-linecap: round; stroke-width: 1; fill: rgb(0%,0%,100%); fill-rule: evenodd;"/>
			<polygon points="453.724 213.0063, 777.1934 213.0063, 777.1934 219.7869, 799.7953 208.486, 777.1934 197.185, 777.1934 203.9656, 453.724 203.9656" style="stroke: rgb(100%,64%,0%); stroke-linecap: round; stroke-width: 1; fill: rgb(100%,64%,0%); fill-rule: evenodd;"/>
			<polygon points="42.09449 146.0378, 265.3356 146.0378, 265.3356 152.8184, 287.9375 141.5175, 265.3356 130.2165, 265.3356 136.9971, 42.09449 136.9971" style="stroke: rgb(100%,64%,0%); stroke-linecap: round; stroke-width: 1; fill: rgb(100%,64%,0%); fill-rule: evenodd;"/>
			<polygon points="594.2957 123.436, 416.4866 123.436, 416.4866 130.2165, 405.1857 118.9156, 416.4866 107.6147, 416.4866 114.3952, 594.2957 114.3952" style="stroke: rgb(0%,0%,100%); stroke-linecap: round; stroke-width: 1; fill: rgb(0%,0%,100%); fill-rule: evenodd;"/>
			<polygon points="594.2957 123.436, 427.7876 123.436, 427.7876 130.2165, 405.1857 118.9156, 427.7876 107.6147, 427.7876 114.3952, 594.2957 114.3952" style="stroke: rgb(100%,64%,0%); stroke-linecap: round; stroke-width: 1; fill: rgb(100%,64%,0%); fill-rule: evenodd;"/>
			<polygon points="765.7555 123.436, 604.9663 123.436, 604.9663 130.2165, 593.6654 118.9156, 604.9663 107.6147, 604.9663 114.3952, 765.7555 114.3952" style="stroke: rgb(0%,0%,100%); stroke-linecap: round; stroke-width: 1; fill: rgb(0%,0%,100%); fill-rule: evenodd;"/>
			<path d="M 42.094488,532.027559 L 799.795276,532.027559 Z" style="stroke: rgb(0%,0%,0%); stroke-linecap: butt; stroke-width: 1;"/>
			<path d="M 42.094488,509.425689 L 42.094488,554.629429 Z" style="stroke: rgb(0%,0%,0%); stroke-linecap: butt; stroke-width: 1;"/>
			<path d="M 42.094488,465.059055 L 799.795276,465.059055 Z" style="stroke: rgb(0%,0%,0%); stroke-linecap: butt; stroke-width: 1;"/>
			<path d="M 42.094488,442.457185 L 42.094488,487.660925 Z" style="stroke: rgb(0%,0%,0%); stroke-linecap: butt; stroke-width: 1;"/>
			<path d="M 42.094488,398.090551 L 799.795276,398.090551 Z" style="stroke: rgb(0%,0%,0%); stroke-linecap: butt; stroke-width: 1;"/>
			<path d="M 42.094488,375.488681 L 42.094488,420.692421 Z" style="stroke: rgb(0%,0%,0%); stroke-linecap: butt; stroke-width: 1;"/>
			<path d="M 42.094488,331.122047 L 799.795276,331.122047 Z" style="stroke: rgb(0%,0%,0%); stroke-linecap: butt; stroke-width: 1;"/>
			<path d="M 42.094488,308.520177 L 42.094488,353.723917 Z" style="stroke: rgb(0%,0%,0%); stroke-linecap: butt; stroke-width: 1;"/>
			<path d="M 42.094488,264.153543 L 799.795276,264.153543 Z" style="stroke: rgb(0%,0%,0%); stroke-linecap: butt; stroke-width: 1;"/>
			<path d="M 42.094488,241.551673 L 42.094488,286.755413 Z" style="stroke: rgb(0%,0%,0%); stroke-linecap: butt; stroke-width: 1;"/>
			<path d="M 42.094488,197.185039 L 799.795276,197.185039 Z" style="stroke: rgb(0%,0%,0%); stroke-linecap: butt; stroke-width: 1;"/>
			<path d="M 42.094488,174.583169 L 42.094488,219.786909 Z" style="stroke: rgb(0%,0%,0%); stroke-linecap: butt; stroke-width: 1;"/>
			<path d="M 42.094488,130.216535 L 799.795276,130.216535 Z" style="stroke: rgb(0%,0%,0%); stroke-linecap: butt; stroke-width: 1;"/>
			<path d="M 42.094488,107.614665 L 42.094488,152.818406 Z" style="stroke: rgb(0%,0%,0%); stroke-linecap: butt; stroke-width: 1;"/>
			<path d="M 795.382709,40.646161 L 795.382709,85.849902 Z" style="stroke: rgb(0%,0%,0%); stroke-linecap: butt; stroke-width: 1;"/>
			<path d="M 42.094488,63.248031 L 795.382709,63.248031 Z" style="stroke: rgb(0%,0%,0%); stroke-linecap: butt; stroke-width: 1;"/>
			<path d="M 42.094488,40.646161 L 42.094488,85.849902 Z" style="stroke: rgb(0%,0%,0%); stroke-linecap: butt; stroke-width: 1;"/>
			<g transform=" matrix(1,0,-0,1,96.306025,554.629429)">
				<text x="0" y="0" style="font-family: Helvetica; font-size: 14px;fill: rgb(0%,0%,0%); stroke:none;" transform="translate(0,0) scale(1,-1)">YP_pPCP01</text>
			</g>
			<g transform=" matrix(1,0,-0,1,738.649705,554.629429)">
				<text x="0" y="0" style="font-family: Helvetica; font-size: 14px;fill: rgb(0%,0%,0%); stroke:none;" transform="translate(0,0) scale(1,-1)">YP_pPCP02</text>
			</g>
			<g transform=" matrix(1,0,-0,1,42.094488,487.660925)">
				<text x="0" y="0" style="font-family: Helvetica; font-size: 14px;fill: rgb(0%,0%,0%); stroke:none;" transform="translate(0,0) scale(1,-1)">YP_pPCP02</text>
			</g>
			<g transform=" matrix(1,0,-0,1,369.885178,420.692421)">
				<text x="0" y="0" style="font-family: Helvetica; font-size: 14px;fill: rgb(0%,0%,0%); stroke:none;" transform="translate(0,0) scale(1,-1)">rop</text>
			</g>
			<g transform=" matrix(1,0,-0,1,723.520903,420.692421)">
				<text x="0" y="0" style="font-family: Helvetica; font-size: 14px;fill: rgb(0%,0%,0%); stroke:none;" transform="translate(0,0) scale(1,-1)">YP_pPCP04</text>
			</g>
			<g transform=" matrix(1,0,-0,1,42.094488,353.723917)">
				<text x="0" y="0" style="font-family: Helvetica; font-size: 14px;fill: rgb(0%,0%,0%); stroke:none;" transform="translate(0,0) scale(1,-1)">YP_pPCP04</text>
			</g>
			<g transform=" matrix(1,0,-0,1,506.044388,353.723917)">
				<text x="0" y="0" style="font-family: Helvetica; font-size: 14px;fill: rgb(0%,0%,0%); stroke:none;" transform="translate(0,0) scale(1,-1)">pim</text>
			</g>
			<g transform=" matrix(-1,0,-0,-1,722.890537,241.551673)">
				<text x="0" y="0" style="font-family: Helvetica; font-size: 14px;fill: rgb(0%,0%,0%); stroke:none;" transform="translate(0,0) scale(1,-1)">pst</text>
			</g>
			<g transform=" matrix(1,0,-0,1,796.013075,286.755413)">
				<text x="0" y="0" style="font-family: Helvetica; font-size: 14px;fill: rgb(0%,0%,0%); stroke:none;" transform="translate(0,0) scale(1,-1)">YP_pPCP07</text>
			</g>
			<g transform=" matrix(1,0,-0,1,42.094488,219.786909)">
				<text x="0" y="0" style="font-family: Helvetica; font-size: 14px;fill: rgb(0%,0%,0%); stroke:none;" transform="translate(0,0) scale(1,-1)">YP_pPCP07</text>
			</g>
			<g transform=" matrix(1,0,-0,1,453.723951,219.786909)">
				<text x="0" y="0" style="font-family: Helvetica; font-size: 14px;fill: rgb(0%,0%,0%); stroke:none;" transform="translate(0,0) scale(1,-1)">pla</text>
			</g>
			<g transform=" matrix(1,0,-0,1,42.094488,152.818406)">
				<text x="0" y="0" style="font-family: Helvetica; font-size: 14px;fill: rgb(0%,0%,0%); stroke:none;" transform="translate(0,0) scale(1,-1)">pla</text>
			</g>
			<g transform=" matrix(-1,0,-0,-1,594.295728,107.614665)">
				<text x="0" y="0" style="font-family: Helvetica; font-size: 14px;fill: rgb(0%,0%,0%); stroke:none;" transform="translate(0,0) scale(1,-1)">YP_pPCP09</text>
			</g>
			<g transform=" matrix(-1,0,-0,-1,765.755473,107.614665)">
				<text x="0" y="0" style="font-family: Helvetica; font-size: 14px;fill: rgb(0%,0%,0%); stroke:none;" transform="translate(0,0) scale(1,-1)">YP_pPCP10</text>
			</g>
		</g>
	</g>
</svg>
